<svg width="64" height="64" viewBox="0 0 64 64" fill="none" xmlns="http://www.w3.org/2000/svg">
  <defs>
    <linearGradient id="g" x1="8" y1="8" x2="56" y2="56" gradientUnits="userSpaceOnUse">
      <stop stop-color="#6D28D9"/>
      <stop offset="1" stop-color="#F97316"/>
    </linearGradient>
    <filter id="s" x="-20%" y="-20%" width="140%" height="140%" color-interpolation-filters="sRGB">
      <feDropShadow dx="0" dy="4" stdDeviation="4" flood-opacity="0.25"/>
    </filter>
  </defs>
  <rect x="4" y="4" width="56" height="56" rx="14" fill="url(#g)"/>
  <g filter="url(#s)" transform="translate(0,1)">
    <path d="M22 27v-2.2C22 20.9 25.1 18 29 18h6c3.9 0 7 2.9 7 6.8V27" stroke="white" stroke-width="3" stroke-linecap="round"/>
    <path d="M20 27h24c1.6 0 3 1.2 3.2 2.8l2.2 17c.2 1.8-1.2 3.4-3 3.4H17.6c-1.8 0-3.2-1.6-3-3.4l2.2-17C17 28.2 18.4 27 20 27Z" stroke="white" stroke-width="3" stroke-linejoin="round"/>
    <path d="M28.2 45V31.8h7.1c2 0 3.7 1.7 3.7 3.7 0 1.3-.6 2.5-1.6 3.1 1.5.6 2.6 2 2.6 3.7 0 2.3-1.9 4.2-4.2 4.2h-7.6Zm3.4-7.3h3c.8 0 1.4-.6 1.4-1.4 0-.8-.6-1.4-1.4-1.4h-3v2.8Zm0 6h3.7c.9 0 1.7-.8 1.7-1.7 0-1-.8-1.7-1.7-1.7h-3.7v3.4Z" fill="white" opacity="0.95"/>
  </g>
</svg>
